<?xml version="1.0" standalone="no"?>
<!DOCTYPE svg PUBLIC "-//W3C//DTD SVG 20010904//EN"
 "http://www.w3.org/TR/2001/REC-SVG-20010904/DTD/svg10.dtd">
<svg version="1.0" xmlns="http://www.w3.org/2000/svg"
 width="512.000000pt" height="512.000000pt" viewBox="0 0 512.000000 512.000000"
 preserveAspectRatio="xMidYMid meet">
<metadata>
Created by potrace 1.11, written by Peter Selinger 2001-2013
</metadata>
<g transform="translate(0.000000,512.000000) scale(0.100000,-0.100000)"
fill="#000000" stroke="none">
<path d="M777 4764 c-34 -6 -79 -18 -101 -27 -21 -9 -43 -14 -50 -10 -6 3 -8
3 -4 -1 4 -5 -15 -23 -43 -41 -80 -55 -139 -123 -179 -210 -21 -44 -41 -102
-45 -128 -6 -46 -8 -3536 -2 -3567 14 -67 24 -93 55 -153 70 -135 212 -242
359 -272 15 -3 689 -6 1498 -6 1131 0 1471 -3 1477 -12 6 -9 8 -9 8 1 0 6 7
12 15 12 8 0 15 -6 15 -12 0 -9 3 -10 8 -2 5 8 90 11 268 12 268 0 340 8 417
47 16 8 34 12 40 8 6 -3 7 -1 3 5 -4 7 7 18 25 28 81 41 197 202 214 296 4 21
10 36 14 34 3 -2 5 799 4 1781 -2 1614 -4 1791 -19 1842 -40 141 -138 262
-262 325 -120 61 5 57 -1907 59 -1200 1 -1766 -1 -1808 -9z m3614 -195 c73
-35 140 -101 175 -175 l29 -59 2 -1268 c1 -958 -2 -1265 -10 -1260 -9 5 -9 3
-1 -8 14 -17 15 -989 2 -989 -9 0 -34 60 -30 73 1 4 -2 7 -7 7 -4 0 -16 21
-26 47 -18 48 -41 101 -96 221 -16 35 -27 67 -24 72 3 5 1 10 -4 12 -4 1 -18
22 -29 46 -11 23 -15 39 -9 35 7 -3 4 3 -5 14 -10 11 -18 23 -18 27 0 4 -9 26
-19 49 -23 52 -51 118 -51 123 0 2 16 11 35 20 68 32 91 102 69 214 -15 71
-50 206 -58 219 -3 4 -8 22 -11 39 -3 18 -12 51 -20 75 -32 95 -115 381 -115
396 0 9 11 30 25 46 36 43 40 49 44 65 27 108 12 234 -54 433 -14 43 -22 84
-19 90 4 7 3 9 -1 4 -5 -4 -30 48 -55 116 -49 128 -158 360 -172 365 -13 6 -9
26 16 79 38 78 55 156 53 248 -1 46 -5 81 -8 79 -4 -2 -9 10 -12 26 -10 47
-64 134 -116 187 -82 83 -216 161 -308 179 -52 10 -246 13 -258 3 -5 -4 -24
-9 -40 -12 -90 -14 -227 -94 -266 -156 -35 -55 -39 -124 -10 -207 19 -53 19
-55 2 -49 -10 3 -36 8 -57 11 -21 2 -42 10 -46 17 -6 9 -8 9 -8 -1 0 -7 -4
-11 -9 -7 -40 24 -516 23 -635 -1 -12 -2 -39 -7 -60 -9 -21 -3 -42 -7 -45 -10
-4 -2 -32 -7 -64 -10 -53 -6 -57 -6 -57 14 0 12 5 21 11 21 5 0 8 4 5 9 -7 11
16 71 27 71 4 0 6 4 3 9 -3 4 -1 23 5 42 14 47 13 111 -2 152 -12 33 -92 97
-162 128 -20 9 -24 15 -15 22 10 6 9 8 -3 4 -9 -3 -41 3 -72 13 -57 19 -172
22 -242 6 -43 -9 -153 -65 -204 -103 -24 -18 -48 -30 -54 -26 -6 4 -7 1 -3 -6
5 -8 0 -14 -13 -18 -12 -3 -21 -8 -21 -12 0 -3 -17 -25 -37 -47 -51 -56 -82
-94 -78 -94 2 0 -5 -20 -16 -45 -11 -25 -22 -56 -24 -68 -16 -78 -20 -158 -11
-198 3 -14 8 -39 10 -55 2 -16 8 -42 15 -57 6 -16 9 -33 5 -38 -3 -5 -1 -9 5
-9 20 0 16 -46 -8 -85 -38 -62 -141 -272 -141 -288 0 -8 -7 -20 -15 -27 -8 -7
-13 -15 -11 -19 2 -3 -5 -24 -16 -46 -11 -22 -21 -47 -23 -55 -2 -8 -9 -28
-16 -45 -6 -16 -13 -34 -15 -40 -1 -5 -25 -75 -53 -155 -28 -80 -51 -153 -51
-162 0 -10 -3 -18 -8 -18 -11 0 -7 -120 6 -150 15 -37 51 -73 114 -114 l57
-37 -5 -56 c-2 -31 -8 -61 -11 -67 -4 -6 -8 -18 -10 -26 -1 -8 -6 -23 -11 -35
-6 -11 -20 -47 -33 -80 -12 -33 -30 -76 -40 -95 -9 -19 -24 -51 -32 -70 -8
-19 -26 -60 -40 -90 -73 -161 -64 -239 41 -351 41 -44 50 -59 45 -79 -8 -36
-52 -166 -71 -209 -9 -20 -16 -38 -17 -41 -6 -32 -31 -78 -38 -73 -6 3 -7 1
-3 -5 6 -10 -41 -128 -114 -287 -18 -38 -41 -89 -51 -112 -19 -44 -35 -58 -26
-23 3 11 2 18 -3 15 -4 -3 -10 9 -12 27 -3 17 -5 819 -4 1782 l1 1751 25 53
c14 28 28 52 32 52 5 0 8 6 8 14 0 33 117 113 200 136 14 4 817 7 1785 6
l1760 -1 56 -26z m-2681 -259 c0 -9 -70 -70 -80 -70 -6 0 -10 -4 -10 -8 0 -5
-29 -39 -65 -76 -37 -38 -84 -92 -107 -122 -22 -30 -43 -54 -47 -54 -4 0 -15
-15 -26 -32 -10 -18 -25 -39 -33 -47 -7 -8 -20 -25 -29 -38 -9 -13 -19 -20
-24 -16 -11 12 -15 56 -6 71 5 6 4 12 -2 12 -5 0 -9 9 -8 20 1 11 4 20 7 20 3
0 5 13 6 28 4 114 198 284 359 315 27 5 65 3 65 -3z m1840 -76 c61 -17 131
-58 183 -107 46 -43 91 -113 84 -131 -3 -8 -1 -16 4 -18 10 -3 13 -32 10 -91
-1 -19 -5 -26 -13 -21 -10 5 -10 4 -1 -6 8 -9 9 -19 1 -36 -10 -22 -13 -20
-67 49 -31 40 -55 76 -53 80 1 5 -2 6 -7 3 -5 -3 -26 16 -47 42 -48 58 -198
208 -231 229 -50 33 33 37 137 7z m-1682 -106 c-37 -103 -39 -113 -39 -165 0
-67 31 -114 91 -139 34 -15 188 -22 208 -10 9 6 43 12 107 20 22 3 51 8 65 12
14 3 113 7 220 9 175 3 261 -1 370 -20 206 -35 212 -35 261 -15 42 18 63 57
64 117 0 28 -2 50 -5 48 -3 -2 -14 18 -24 43 -10 26 -24 60 -31 76 -7 16 -12
36 -11 45 3 18 46 29 46 11 0 -6 4 -9 8 -6 25 15 210 -149 332 -293 30 -36 62
-72 70 -81 8 -10 22 -26 30 -36 92 -118 120 -155 120 -163 0 -5 4 -11 9 -13
17 -6 108 -182 166 -323 35 -83 104 -285 99 -285 -4 0 0 -7 7 -17 8 -9 13 -18
12 -19 -1 -2 -1 -9 1 -16 19 -68 23 -89 22 -120 -1 -20 3 -34 8 -31 4 3 6 -16
3 -42 -5 -35 -15 -57 -36 -79 -47 -48 -59 -109 -37 -193 9 -37 18 -75 20 -83
2 -8 12 -42 22 -75 10 -33 18 -62 19 -65 1 -3 12 -39 24 -80 13 -41 24 -79 26
-85 1 -5 5 -17 8 -25 10 -28 26 -84 56 -197 20 -78 26 -113 18 -115 -48 -6
-84 -25 -103 -54 -20 -29 -26 -97 -13 -128 4 -12 31 -77 60 -146 28 -69 57
-138 64 -155 7 -16 26 -59 41 -95 15 -36 35 -83 45 -105 83 -186 109 -251 104
-263 -2 -7 -1 -11 4 -8 8 6 48 -72 44 -86 -2 -5 2 -8 8 -8 5 0 8 -4 5 -8 -3
-5 3 -18 14 -30 15 -15 16 -23 7 -30 -29 -23 -113 -64 -141 -69 -41 -7 -363
-13 -401 -7 -28 4 -37 16 -100 140 -39 75 -70 139 -70 143 0 3 -3 11 -7 16
-19 30 -60 156 -65 197 l-5 47 53 24 c91 41 121 90 118 188 -2 41 -12 78 -35
128 -28 60 -85 155 -103 171 -18 15 -51 90 -40 90 8 0 8 4 -1 15 -9 11 -9 15
-1 15 7 0 9 5 4 13 -11 18 -3 141 10 149 9 6 8 8 -2 8 -9 0 -11 8 -7 24 3 13
9 91 12 173 6 134 5 154 -11 181 -32 53 -93 67 -137 32 -30 -23 -32 -29 -94
-227 -26 -84 -51 -150 -56 -147 -4 3 -5 -1 -2 -9 8 -21 -108 -273 -146 -315
-8 -9 -22 -30 -30 -47 -15 -29 -173 -194 -220 -228 -34 -25 -160 -89 -160 -81
0 4 -6 1 -14 -5 -13 -11 -41 -19 -91 -26 -11 -2 -20 -4 -20 -5 0 -13 -239 -18
-305 -6 -199 38 -372 153 -508 338 -38 52 -93 142 -108 178 -4 8 -20 44 -36
79 -17 35 -31 68 -32 75 -1 6 -4 16 -7 21 -8 12 -51 149 -74 230 -43 155 -58
181 -112 191 -47 9 -81 -9 -99 -51 -17 -42 -18 -67 -10 -390 5 -237 5 -252
-15 -291 -11 -23 -28 -50 -37 -60 -26 -29 -79 -114 -97 -156 -19 -46 -20 -138
-1 -181 17 -41 48 -69 113 -102 52 -25 75 -45 53 -45 -6 0 -9 -4 -6 -9 5 -8
-12 -69 -33 -116 -33 -73 -41 -94 -41 -103 0 -6 -3 -12 -7 -14 -5 -2 -23 -32
-41 -68 -49 -99 -93 -174 -105 -182 -6 -4 -103 -6 -217 -5 -200 2 -206 3 -263
30 -32 14 -57 30 -55 34 2 5 10 23 17 40 7 19 18 30 24 26 5 -3 7 -1 4 4 -9
15 17 75 28 66 4 -5 5 -3 2 3 -4 7 10 47 30 90 20 44 36 81 35 84 0 3 6 16 13
30 22 40 75 161 75 170 0 19 34 79 42 74 4 -3 5 2 2 10 -3 8 3 34 14 58 10 24
22 55 25 71 4 15 12 27 18 27 6 0 8 4 5 8 -2 4 5 39 16 77 38 132 25 188 -63
271 -53 51 -63 77 -45 117 42 93 66 148 66 152 0 3 13 32 29 65 17 34 35 77
41 96 6 19 15 32 18 30 4 -2 8 6 9 17 0 12 13 60 27 106 14 46 26 99 26 117 0
20 5 34 13 34 7 0 8 3 2 8 -6 4 -12 20 -14 37 -5 49 -65 127 -126 165 -58 37
-61 44 -44 100 5 19 12 42 14 51 2 8 22 69 45 135 23 65 47 133 53 151 5 18
15 29 20 26 6 -3 7 -1 4 4 -7 11 21 85 79 210 18 41 34 78 34 83 0 5 3 10 8
12 4 2 18 26 32 53 38 78 71 125 83 118 5 -3 7 -2 4 3 -7 12 92 146 103 139 4
-3 7 1 6 8 -1 13 31 61 67 98 9 11 17 24 17 29 0 6 7 13 15 16 8 3 17 15 21
26 3 11 12 17 19 14 9 -3 12 0 9 9 -10 25 253 276 297 284 3 1 -7 -36 -23 -81z
m-239 -2490 c11 -23 17 -46 14 -52 -3 -6 -3 -8 2 -4 11 10 76 -101 68 -116 -3
-6 -3 -8 1 -4 4 4 30 -23 58 -60 47 -64 191 -212 205 -212 4 0 16 -9 27 -19
27 -25 158 -95 216 -116 99 -36 207 -54 335 -57 63 -1 194 11 208 19 9 6 64
16 89 17 9 0 15 3 13 7 -3 3 14 11 36 18 70 21 214 109 289 177 20 19 41 30
45 26 5 -4 5 -2 2 4 -3 5 14 32 39 58 24 26 44 51 44 56 0 5 4 10 8 12 10 4
109 158 141 220 28 52 36 54 39 9 2 -29 21 -69 57 -125 8 -12 12 -26 8 -31 -5
-4 -3 -5 3 -2 12 7 47 -38 47 -60 0 -7 4 -13 8 -13 5 0 18 -18 29 -40 11 -22
18 -40 14 -40 -4 0 -1 -7 6 -15 16 -19 2 -38 -43 -56 -117 -46 -154 -195 -89
-359 5 -14 10 -28 11 -33 0 -4 8 -21 16 -37 9 -17 13 -30 9 -30 -4 0 -1 -6 5
-13 6 -8 8 -17 4 -20 -3 -4 -1 -7 5 -7 7 0 12 -5 12 -10 0 -6 16 -42 35 -81
19 -39 32 -76 28 -82 -3 -5 -2 -7 4 -4 6 4 15 -4 21 -17 l10 -23 -1148 0
c-965 0 -1147 2 -1143 13 3 8 9 14 14 14 5 0 9 5 9 10 0 6 29 70 64 143 106
216 134 325 103 398 -16 39 -80 95 -141 122 -34 16 -37 21 -32 45 7 25 66 121
93 150 6 6 15 21 18 32 3 11 11 20 16 20 5 0 9 8 9 18 0 10 4 22 9 28 13 14
28 84 26 127 0 20 0 37 1 37 1 0 11 -19 23 -42z"/>
<path d="M4460 1186 c0 -2 8 -10 18 -17 15 -13 16 -12 3 4 -13 16 -21 21 -21
13z"/>
<path d="M3679 4113 c-13 -16 -12 -17 4 -4 16 13 21 21 13 21 -2 0 -10 -8 -17
-17z"/>
<path d="M2045 2772 c-53 -12 -118 -88 -131 -154 -26 -135 41 -254 155 -274
59 -11 135 41 167 114 19 44 22 143 6 192 -29 86 -116 140 -197 122z"/>
<path d="M2972 2759 c-149 -74 -142 -340 11 -404 21 -9 50 -12 69 -9 18 3 43
6 55 7 11 1 19 5 17 8 -2 4 6 15 17 25 96 86 86 294 -17 362 -48 31 -102 35
-152 11z"/>
<path d="M2416 1813 c-30 -16 -54 -53 -50 -78 5 -32 30 -82 90 -180 30 -49 58
-100 63 -111 22 -51 103 -72 139 -36 36 36 182 301 182 330 0 38 -40 82 -77
83 -159 6 -327 2 -347 -8z"/>
</g>
</svg>
